<?xml version="1.0" encoding="UTF-8" standalone="no"?>
<!-- Created with Inkscape (http://www.inkscape.org/) -->

<svg
   xmlns:dc="http://purl.org/dc/elements/1.1/"
   xmlns:cc="http://creativecommons.org/ns#"
   xmlns:rdf="http://www.w3.org/1999/02/22-rdf-syntax-ns#"
   xmlns:svg="http://www.w3.org/2000/svg"
   xmlns="http://www.w3.org/2000/svg"
   xmlns:sodipodi="http://sodipodi.sourceforge.net/DTD/sodipodi-0.dtd"
   xmlns:inkscape="http://www.inkscape.org/namespaces/inkscape"
   width="56.116409mm"
   height="44.709309mm"
   viewBox="0 0 198.83767 158.41881"
   id="svg2"
   version="1.1"
   inkscape:version="0.91 r13725"
   sodipodi:docname="pureconnect.svg">
  <defs
     id="defs4" />
  <sodipodi:namedview
     id="base"
     pagecolor="#ff4f1f"
     bordercolor="#666666"
     borderopacity="1.0"
     inkscape:pageopacity="0"
     inkscape:pageshadow="2"
     inkscape:zoom="1.4"
     inkscape:cx="108.09219"
     inkscape:cy="81.620068"
     inkscape:document-units="px"
     inkscape:current-layer="layer1"
     showgrid="false"
     fit-margin-top="0"
     fit-margin-left="0"
     fit-margin-right="0"
     fit-margin-bottom="0"
     inkscape:window-width="1178"
     inkscape:window-height="746"
     inkscape:window-x="156"
     inkscape:window-y="156"
     inkscape:window-maximized="0"
     showborder="false" />
  <metadata
     id="metadata7">
    <rdf:RDF>
      <cc:Work
         rdf:about="">
        <dc:format>image/svg+xml</dc:format>
        <dc:type
           rdf:resource="http://purl.org/dc/dcmitype/StillImage" />
        <dc:title></dc:title>
      </cc:Work>
    </rdf:RDF>
  </metadata>
  <g
     inkscape:label="Layer 1"
     inkscape:groupmode="layer"
     id="layer1"
     transform="translate(-113.94805,-432.92075)">
    <path
       style="fill:#000000"
       d=""
       id="path4147"
       inkscape:connector-curvature="0" />
    <path
       style="fill:none;fill-rule:evenodd;stroke:#ffffff;stroke-width:3.21424055;stroke-linecap:butt;stroke-linejoin:miter;stroke-miterlimit:4;stroke-dasharray:none;stroke-opacity:1"
       d="m 173.50196,456.79155 c 0.2165,36.81127 0.55531,69.38778 -0.13531,105.20679 -0.0575,2.98843 0.12689,6.05473 -0.63775,8.94425 -0.79186,2.99229 -1.85846,6.14891 -4.0074,8.37664 -1.02813,1.06581 -2.49712,1.71028 -3.93606,2.06025 -3.09779,0.75342 -6.40922,0.41023 -9.56417,-0.0484 -4.46958,-0.64969 -8.94231,-1.82534 -13.00828,-3.79187 -5.1486,-2.49018 -10.09553,-5.74426 -13.99062,-9.93203 -3.15221,-3.38907 -5.2836,-7.65995 -7.1978,-11.87396 -1.68742,-3.71471 -2.87554,-7.67062 -3.70839,-11.66471 -0.55368,-2.65527 -0.56925,-5.39484 -0.83938,-8.09373 -0.31855,-3.18259 -0.91431,-6.35264 -0.92145,-9.55112 -0.009,-4.00708 0.32083,-8.04036 1.10097,-11.97078 0.55144,-2.77817 1.48218,-5.47884 2.51247,-8.11718 1.09011,-2.79154 2.34929,-5.53209 3.86532,-8.11718 1.6212,-2.7644 3.39849,-5.47687 5.55784,-7.84488 1.97769,-2.16881 4.3068,-4.01117 6.68627,-5.72966 2.1306,-1.53875 4.39957,-2.89964 6.75259,-4.07031 2.90191,-1.44375 5.99646,-2.46474 9.02692,-3.61445 3.79138,-1.43838 7.61978,-2.77826 11.45102,-4.10691 3.16141,-1.09636 6.35434,-2.10009 9.51836,-3.18888 2.97186,-1.02266 5.92744,-2.09199 8.89026,-3.14059 11.63059,-4.11624 23.50679,-7.59825 34.88455,-12.36904 2.57736,-1.0807 5.33763,-1.94818 7.53738,-3.67205 1.1881,-0.93108 2.46748,-2.03234 2.899,-3.47881 0.48202,-1.6157 -0.16643,-3.39028 -0.57981,-5.02491 -0.25515,-1.00901 -0.58664,-2.03011 -1.15959,-2.899 -0.65198,-0.98878 -1.55163,-1.81995 -2.51246,-2.51246 -1.16861,-0.84229 -2.46334,-1.60171 -3.86533,-1.93267 -0.68968,-0.1628 -1.42565,-0.10851 -2.12593,0 -7.14738,1.10827 -13.9151,4.0105 -20.67949,6.57106 -5.66477,2.14431 -11.56975,4.00141 -16.6209,7.34413 -1.17824,0.77973 -2.21666,1.79013 -3.09226,2.89898 -0.64375,0.81526 -1.17712,1.73471 -1.54613,2.70573 -0.31916,0.83985 -0.55974,1.73928 -0.55444,2.63772 z"
       id="path4181"
       inkscape:connector-curvature="0"
       sodipodi:nodetypes="ssaaaaaaaaaaaaaaaaaaaaaaaaaaaaaaaas" />
    <rect
       style="opacity:1;fill:none;fill-opacity:1;stroke:#ffffff;stroke-width:3.06118155;stroke-miterlimit:4;stroke-dasharray:none;stroke-opacity:1"
       id="rect4183"
       width="90.178612"
       height="18.902906"
       x="187.90408"
       y="570.90607"
       ry="9.1615438" />
    <path
       id="rect4229"
       style="opacity:1;fill:none;fill-opacity:1;stroke:#ffffff;stroke-width:3.06118155;stroke-miterlimit:4;stroke-dasharray:none;stroke-opacity:1"
       d="m 201.47384,559.02831 c -8.10092,0 -13.7046,-5.99022 -13.7046,-14.09114 l 0,-2.45985 c 0,-8.10094 6.52169,-14.62262 14.62262,-14.62262 m -0.21329,-19.15236 c -8.10092,0 -14.40933,-6.22835 -14.40933,-14.32928 l 0,-1.3666 c 0,-8.10093 5.70172,-14.34931 13.80265,-14.34931 m 8.23418,61.24021 c -11.43215,0 -22.03683,-9.4934 -22.03683,-20.92555 l 0,-1.09327 c 0,-11.43215 9.2035,-20.63565 20.63565,-20.63565 m -8.15974,-18.5858 93.01305,0 c 4.82206,0 8.70407,3.88202 8.70407,8.70407 l 0,1.17756 c 0,4.82207 -3.88201,8.70408 -8.70407,8.70408 l -85.08678,0 m -6.51218,11.47952 100.43434,0 c 5.0755,0 9.16155,4.08605 9.16155,9.16155 l 0,0.80928 c 0,5.07549 -4.08605,9.16155 -9.16155,9.16155 l -100.571,0 m 8.33088,12.02612 80.9027,0 c 4.99682,0 9.01952,4.02271 9.01952,9.01952 l 0,1.09329 c 0,4.99681 -4.0227,9.01952 -9.01952,9.01952 l -90.19558,0"
       inkscape:connector-curvature="0" />
  </g>
</svg>
